<?xml version="1.0" encoding="utf-8"?>
<!-- Generator: Adobe Illustrator 18.1.1, SVG Export Plug-In . SVG Version: 6.00 Build 0)  -->
<svg version="1.1" id="Layer_1" xmlns="http://www.w3.org/2000/svg" xmlns:xlink="http://www.w3.org/1999/xlink" x="0px" y="0px"
	 viewBox="-12.1 779.2 372.2 86.4" enable-background="new -12.1 779.2 372.2 86.4" xml:space="preserve">
<path fill="#ffffff" d="M40.4,859.5v-23.9h7.5c4.4,0,6.1,2.6,6.1,2.6v-7.7c-1.5,1.5-2.1,2-6.1,2h-7.5v-18.2h4.4
	c6.1,0,9.3,3.1,9.3,3.1l-2.6-6H32.2v0.1v51.6h30.7l4-7.7c0,0-5.3,4-15.9,4L40.4,859.5L40.4,859.5z M21,845.1l-26.8-33.6h-6.3v51.6h4
	v-41.6L25,863.7v-52.3h-4V845.1z M170.8,790.4h9.3V801h4v-21.6h-4v9.2h-9.3v-9.2h-4V801h4V790.4z M149.8,781v19.9h4V781h0.3h0.1h1.9
	c3.3,0,6,2.2,6,2.2l-1.3-4h-17.9l-1.4,4.1c0,0,2.6-2.2,6.1-2.2L149.8,781L149.8,781z M205.1,797.8c0,0-1.5,1.9-5,1.9h-4.7v-9.3h3.4
	c1.9,0,2.4,1,2.4,1V788c0,0-0.6,0.8-2.4,0.8h-3.4v-7.4h3.6c1.9,0,4,1.3,4,1.3l-1.3-3.2h-10v21.9h11.9L205.1,797.8z M97.6,849.1
	l-5.8-11.9l10.6-25.7h-4l-9.3,20.2l-9.4-20.2H72l13.2,29.9l-3.5,7.7l-17.5-37.6H56l23.5,52.2l7.9-17.2l7.9,17.2l23.4-52.1H114
	L97.6,849.1z M305.2,859.7v-24.4h8.1c4.4,0,5.3,1.9,5.3,1.9v-5.8c-1.3,1-2.1,1.3-5.3,1.3H305v-18.2h7.2c6.3,0,9.3,3.1,9.3,3.1
	l-2.6-6h-21.2h-0.1v51.6h20.8l4.7-6.1c0,0-3.4,2.6-12.6,2.6L305.2,859.7L305.2,859.7z M358.8,859.7c-0.5,0.8-1.9,1.9-3.4,1.9
	c-2.1,0-4.7-3.6-4.7-13.5s-2.8-13.2-10.2-14.6c4.1-1.3,10-3.6,10-11.5c0-6.9-5.3-10.6-11.9-10.6h-12.2v0.3l-0.3,51.6h7.7v-49h3.6
	c1.9,0,6.7,1,6.7,9c0,8.4-6.8,10-7,10v1c3.3,0,7.3,0.3,7.3,15.3c0,10.2,3.7,14.6,8.5,14.6c4.7,0,6.8-3.2,7.2-3.7L358.8,859.7z
	 M290.1,861.6c-2.4,0-4.7-3.6-4.7-13.7v-0.1v-1.9c0-11.9-2.6-17.2-10.2-18.5l14.6-16.2H285l-13.7,15.3v-15.1h-7.5V863h7.7v-34.1h1.3
	c1.3,0,4.4,1.7,5.3,4.4c0.9,3.1,1.3,7.8,1.3,14v2c0,10.6,3.6,14.6,8.4,14.6s6.9-3.2,7.2-3.6l-1-0.6
	C293.1,860.2,291.8,861.6,290.1,861.6z M191.8,809.7c-17.6,0.1-29.5,12.5-29.5,28.1c0,14,11.1,27.8,29.9,27.8
	c18.7,0,28.6-11.4,28.6-29.4C220.9,822.2,209.8,809.7,191.8,809.7z M192.6,862c-15.6,0-22.5-13.2-22.5-25.5
	c0-16.2,11.4-23.9,21.2-23.9c14.3,0,21.6,13.5,21.6,24.1C212.9,850,207.2,862,192.6,862z M255.9,861.6c-2.1,0-4.7-3.6-4.7-13.5
	s-2.8-13.2-10.2-14.6c4.1-1.3,10-3.6,10-11.5c0-6.9-5.3-10.6-11.9-10.6h-11.9l-0.3,0.3l-0.3,51.6h7.7v-49h3.6c1.9,0,6.7,1,6.7,9
	c0,8.4-6.9,10-6.9,10v1c3.3,0,7.3,0.3,7.3,15.3c0,10.2,3.8,14.6,8.6,14.6c4.7,0,6.8-3.2,7.2-3.7l-1-0.7
	C259.1,860.5,257.6,861.6,255.9,861.6z M161.3,811.5l-13.8,23.8l-14-23.8H129l14.6,24.9v26.7h7.9v-26.7l14.6-24.9H161.3z"/>
</svg>
